<svg xml:space="preserve" style="enable-background:new 0 0 16 16;" viewBox="0 0 16 16" y="0px" x="0px" xmlns:xlink="http://www.w3.org/1999/xlink" xmlns="http://www.w3.org/2000/svg" id="Layer_1" version="1.1">
<style type="text/css">
	.st0{fill:#009C81;}
</style>
<g>
	<path d="M8,0C3.58,0,0,3.58,0,8s3.58,8,8,8c4.42,0,8-3.58,8-8S12.42,0,8,0z M8,14.78c-3.75,0-6.78-3.04-6.78-6.78
		c0-3.75,3.04-6.78,6.78-6.78c3.75,0,6.78,3.04,6.78,6.78C14.78,11.75,11.75,14.78,8,14.78z" class="st0"></path>
	<g>
		<g>
			<path d="M13.67,7.58l-2.89-0.01c-0.1,0-0.19,0.07-0.19,0.19l0,0.74c0,0.1,0.09,0.17,0.19,0.17l1.88,0
				c-0.24,0.91-0.93,1.43-1.92,1.43c-1.1,0-1.89-0.88-1.89-2.11c0-1.22,0.8-2.1,1.9-2.1c0.65,0,1.1,0.21,1.57,0.67
				c0.09,0.09,0.19,0.09,0.26,0l0.52-0.57c0.07-0.09,0.07-0.19,0-0.26c-0.65-0.66-1.39-0.95-2.32-0.95C8.97,4.8,7.67,6.14,7.67,8
				c0,1.84,1.29,3.21,3.06,3.21c1.81,0,3.12-1.36,3.12-3.18l0-0.26C13.86,7.67,13.79,7.58,13.67,7.58" class="st0"></path>
			<path d="M3.02,9.11l-0.55,0.6c-0.07,0.07-0.07,0.17,0,0.24c0.72,0.86,1.51,1.24,2.55,1.25c1.38,0,2.33-0.72,2.33-1.8
				c0-0.91-0.48-1.47-1.48-1.74l-1.1-0.31C4.07,7.15,3.8,6.91,3.8,6.57c0-0.43,0.45-0.72,1.16-0.72c0.52,0,0.95,0.23,1.34,0.66
				c0.07,0.1,0.19,0.1,0.26,0l0.54-0.55c0.07-0.09,0.07-0.19,0-0.26c-0.52-0.59-1.26-0.9-2.13-0.9c-1.33,0-2.28,0.74-2.28,1.79
				c0,0.79,0.58,1.45,1.56,1.73L5.28,8.6C5.93,8.79,6.19,9.02,6.19,9.4c0,0.43-0.41,0.71-1.1,0.7c-0.76,0-1.34-0.33-1.81-0.97
				C3.21,9.05,3.09,9.03,3.02,9.11" class="st0"></path>
		</g>
	</g>
</g>
</svg>
